<mxfile host="app.diagrams.net" agent="Mozilla/5.0 (Windows NT 10.0; Win64; x64) AppleWebKit/537.36 (KHTML, like Gecko) Chrome/128.0.0.0 Safari/537.36" version="24.7.12">
  <diagram name="Page-1" id="IDT6LcyKNpp8gJ-r8iRW">
    <mxGraphModel dx="2668" dy="951" grid="1" gridSize="10" guides="1" tooltips="1" connect="1" arrows="1" fold="1" page="1" pageScale="1" pageWidth="1200" pageHeight="1600" math="0" shadow="0">
      <root>
        <mxCell id="0" />
        <mxCell id="1" parent="0" />
        <mxCell id="n4DOmOB9AjL-KvQzBsx2-8" style="edgeStyle=orthogonalEdgeStyle;rounded=0;orthogonalLoop=1;jettySize=auto;html=1;" parent="1" source="n4DOmOB9AjL-KvQzBsx2-1" target="n4DOmOB9AjL-KvQzBsx2-2" edge="1">
          <mxGeometry relative="1" as="geometry" />
        </mxCell>
        <mxCell id="n4DOmOB9AjL-KvQzBsx2-10" style="edgeStyle=orthogonalEdgeStyle;rounded=0;orthogonalLoop=1;jettySize=auto;html=1;" parent="1" source="n4DOmOB9AjL-KvQzBsx2-1" target="n4DOmOB9AjL-KvQzBsx2-3" edge="1">
          <mxGeometry relative="1" as="geometry" />
        </mxCell>
        <mxCell id="n4DOmOB9AjL-KvQzBsx2-1" value="Start" style="ellipse;whiteSpace=wrap;html=1;fillColor=#fff2cc;strokeColor=#d6b656;" parent="1" vertex="1">
          <mxGeometry x="190" y="60" width="120" height="60" as="geometry" />
        </mxCell>
        <mxCell id="n4DOmOB9AjL-KvQzBsx2-6" style="edgeStyle=orthogonalEdgeStyle;rounded=0;orthogonalLoop=1;jettySize=auto;html=1;entryX=0.5;entryY=0;entryDx=0;entryDy=0;" parent="1" source="n4DOmOB9AjL-KvQzBsx2-2" target="n4DOmOB9AjL-KvQzBsx2-4" edge="1">
          <mxGeometry relative="1" as="geometry" />
        </mxCell>
        <mxCell id="n4DOmOB9AjL-KvQzBsx2-2" value="Collect Data From Current Sensor" style="rounded=0;whiteSpace=wrap;html=1;fillColor=#ffe6cc;strokeColor=#d79b00;" parent="1" vertex="1">
          <mxGeometry x="90" y="180" width="120" height="60" as="geometry" />
        </mxCell>
        <mxCell id="n4DOmOB9AjL-KvQzBsx2-7" style="edgeStyle=orthogonalEdgeStyle;rounded=0;orthogonalLoop=1;jettySize=auto;html=1;entryX=0.5;entryY=0;entryDx=0;entryDy=0;" parent="1" source="n4DOmOB9AjL-KvQzBsx2-3" target="n4DOmOB9AjL-KvQzBsx2-4" edge="1">
          <mxGeometry relative="1" as="geometry" />
        </mxCell>
        <mxCell id="n4DOmOB9AjL-KvQzBsx2-3" value="Collect Data From Voltage&amp;nbsp; Sensor" style="rounded=0;whiteSpace=wrap;html=1;fillColor=#ffe6cc;strokeColor=#d79b00;" parent="1" vertex="1">
          <mxGeometry x="300" y="180" width="120" height="60" as="geometry" />
        </mxCell>
        <mxCell id="n4DOmOB9AjL-KvQzBsx2-11" style="edgeStyle=orthogonalEdgeStyle;rounded=0;orthogonalLoop=1;jettySize=auto;html=1;entryX=0.5;entryY=0;entryDx=0;entryDy=0;" parent="1" source="n4DOmOB9AjL-KvQzBsx2-4" target="n4DOmOB9AjL-KvQzBsx2-5" edge="1">
          <mxGeometry relative="1" as="geometry" />
        </mxCell>
        <mxCell id="n4DOmOB9AjL-KvQzBsx2-4" value="Data to ESP32" style="rounded=0;whiteSpace=wrap;html=1;fillColor=#ffe6cc;strokeColor=#d79b00;" parent="1" vertex="1">
          <mxGeometry x="200" y="290" width="120" height="60" as="geometry" />
        </mxCell>
        <mxCell id="n4DOmOB9AjL-KvQzBsx2-15" style="edgeStyle=orthogonalEdgeStyle;rounded=0;orthogonalLoop=1;jettySize=auto;html=1;entryX=0.5;entryY=0;entryDx=0;entryDy=0;" parent="1" source="n4DOmOB9AjL-KvQzBsx2-5" target="n4DOmOB9AjL-KvQzBsx2-12" edge="1">
          <mxGeometry relative="1" as="geometry" />
        </mxCell>
        <mxCell id="n4DOmOB9AjL-KvQzBsx2-5" value="Host ID" style="rounded=0;whiteSpace=wrap;html=1;fillColor=#ffe6cc;strokeColor=#d79b00;" parent="1" vertex="1">
          <mxGeometry x="200" y="390" width="120" height="60" as="geometry" />
        </mxCell>
        <mxCell id="n4DOmOB9AjL-KvQzBsx2-16" style="edgeStyle=orthogonalEdgeStyle;rounded=0;orthogonalLoop=1;jettySize=auto;html=1;entryX=0.5;entryY=0;entryDx=0;entryDy=0;" parent="1" source="n4DOmOB9AjL-KvQzBsx2-12" target="n4DOmOB9AjL-KvQzBsx2-13" edge="1">
          <mxGeometry relative="1" as="geometry" />
        </mxCell>
        <mxCell id="n4DOmOB9AjL-KvQzBsx2-48" style="edgeStyle=orthogonalEdgeStyle;rounded=0;orthogonalLoop=1;jettySize=auto;html=1;entryX=1;entryY=0.5;entryDx=0;entryDy=0;" parent="1" source="n4DOmOB9AjL-KvQzBsx2-12" target="n4DOmOB9AjL-KvQzBsx2-42" edge="1">
          <mxGeometry relative="1" as="geometry" />
        </mxCell>
        <mxCell id="n4DOmOB9AjL-KvQzBsx2-12" value="Firebase Server&lt;div&gt;(Real Time DataBase)&lt;/div&gt;" style="rounded=0;whiteSpace=wrap;html=1;fillColor=#e1d5e7;strokeColor=#9673a6;" parent="1" vertex="1">
          <mxGeometry x="200" y="490" width="120" height="60" as="geometry" />
        </mxCell>
        <mxCell id="n4DOmOB9AjL-KvQzBsx2-19" style="edgeStyle=orthogonalEdgeStyle;rounded=0;orthogonalLoop=1;jettySize=auto;html=1;entryX=0.5;entryY=0;entryDx=0;entryDy=0;" parent="1" source="n4DOmOB9AjL-KvQzBsx2-13" target="n4DOmOB9AjL-KvQzBsx2-18" edge="1">
          <mxGeometry relative="1" as="geometry" />
        </mxCell>
        <mxCell id="n4DOmOB9AjL-KvQzBsx2-13" value="Calculate Leakage &amp;amp; Earthing Continuity&amp;nbsp;" style="rounded=0;whiteSpace=wrap;html=1;fillColor=#e1d5e7;strokeColor=#9673a6;" parent="1" vertex="1">
          <mxGeometry x="200" y="590" width="120" height="60" as="geometry" />
        </mxCell>
        <mxCell id="n4DOmOB9AjL-KvQzBsx2-59" style="edgeStyle=orthogonalEdgeStyle;rounded=0;orthogonalLoop=1;jettySize=auto;html=1;entryX=0.5;entryY=0;entryDx=0;entryDy=0;" parent="1" source="n4DOmOB9AjL-KvQzBsx2-14" target="n4DOmOB9AjL-KvQzBsx2-54" edge="1">
          <mxGeometry relative="1" as="geometry" />
        </mxCell>
        <mxCell id="n4DOmOB9AjL-KvQzBsx2-60" style="edgeStyle=orthogonalEdgeStyle;rounded=0;orthogonalLoop=1;jettySize=auto;html=1;entryX=0.5;entryY=0;entryDx=0;entryDy=0;" parent="1" source="n4DOmOB9AjL-KvQzBsx2-14" target="n4DOmOB9AjL-KvQzBsx2-56" edge="1">
          <mxGeometry relative="1" as="geometry" />
        </mxCell>
        <mxCell id="n4DOmOB9AjL-KvQzBsx2-61" style="edgeStyle=orthogonalEdgeStyle;rounded=0;orthogonalLoop=1;jettySize=auto;html=1;entryX=0.5;entryY=0;entryDx=0;entryDy=0;" parent="1" source="n4DOmOB9AjL-KvQzBsx2-14" target="n4DOmOB9AjL-KvQzBsx2-55" edge="1">
          <mxGeometry relative="1" as="geometry" />
        </mxCell>
        <mxCell id="n4DOmOB9AjL-KvQzBsx2-14" value="Alert (PopUp) Maintaiance Needed" style="rounded=0;whiteSpace=wrap;html=1;fillColor=#e1d5e7;strokeColor=#9673a6;" parent="1" vertex="1">
          <mxGeometry x="200" y="920" width="120" height="50" as="geometry" />
        </mxCell>
        <mxCell id="n4DOmOB9AjL-KvQzBsx2-47" style="edgeStyle=orthogonalEdgeStyle;rounded=0;orthogonalLoop=1;jettySize=auto;html=1;entryX=1;entryY=0.5;entryDx=0;entryDy=0;" parent="1" source="n4DOmOB9AjL-KvQzBsx2-18" target="n4DOmOB9AjL-KvQzBsx2-1" edge="1">
          <mxGeometry relative="1" as="geometry">
            <Array as="points">
              <mxPoint x="480" y="730" />
              <mxPoint x="480" y="90" />
            </Array>
          </mxGeometry>
        </mxCell>
        <mxCell id="n4DOmOB9AjL-KvQzBsx2-51" style="edgeStyle=orthogonalEdgeStyle;rounded=0;orthogonalLoop=1;jettySize=auto;html=1;exitX=0.5;exitY=1;exitDx=0;exitDy=0;entryX=0.5;entryY=0;entryDx=0;entryDy=0;" parent="1" source="n4DOmOB9AjL-KvQzBsx2-18" target="n4DOmOB9AjL-KvQzBsx2-49" edge="1">
          <mxGeometry relative="1" as="geometry" />
        </mxCell>
        <mxCell id="n4DOmOB9AjL-KvQzBsx2-18" value="Leakage&amp;nbsp; &amp;gt; Thereshold" style="rhombus;whiteSpace=wrap;html=1;fillColor=#e1d5e7;strokeColor=#9673a6;" parent="1" vertex="1">
          <mxGeometry x="210" y="690" width="100" height="80" as="geometry" />
        </mxCell>
        <mxCell id="n4DOmOB9AjL-KvQzBsx2-21" value="Stop" style="ellipse;whiteSpace=wrap;html=1;aspect=fixed;fillColor=#f8cecc;strokeColor=#b85450;" parent="1" vertex="1">
          <mxGeometry x="225" y="1150" width="70" height="70" as="geometry" />
        </mxCell>
        <mxCell id="n4DOmOB9AjL-KvQzBsx2-31" style="edgeStyle=orthogonalEdgeStyle;rounded=0;orthogonalLoop=1;jettySize=auto;html=1;entryX=0.5;entryY=0;entryDx=0;entryDy=0;" parent="1" source="n4DOmOB9AjL-KvQzBsx2-25" target="n4DOmOB9AjL-KvQzBsx2-28" edge="1">
          <mxGeometry relative="1" as="geometry" />
        </mxCell>
        <mxCell id="n4DOmOB9AjL-KvQzBsx2-25" value="Prophet Library" style="rounded=0;whiteSpace=wrap;html=1;fillColor=#b0e3e6;strokeColor=#0e8088;" parent="1" vertex="1">
          <mxGeometry x="-70" y="700" width="120" height="60" as="geometry" />
        </mxCell>
        <mxCell id="n4DOmOB9AjL-KvQzBsx2-44" style="edgeStyle=orthogonalEdgeStyle;rounded=0;orthogonalLoop=1;jettySize=auto;html=1;entryX=0.5;entryY=0;entryDx=0;entryDy=0;" parent="1" source="n4DOmOB9AjL-KvQzBsx2-26" target="n4DOmOB9AjL-KvQzBsx2-42" edge="1">
          <mxGeometry relative="1" as="geometry" />
        </mxCell>
        <mxCell id="n4DOmOB9AjL-KvQzBsx2-26" value="Using Pandas data into (.CSV) file" style="rounded=0;whiteSpace=wrap;html=1;fillColor=#b0e3e6;strokeColor=#0e8088;" parent="1" vertex="1">
          <mxGeometry x="-70" y="390" width="120" height="60" as="geometry" />
        </mxCell>
        <mxCell id="n4DOmOB9AjL-KvQzBsx2-29" style="edgeStyle=orthogonalEdgeStyle;rounded=0;orthogonalLoop=1;jettySize=auto;html=1;entryX=0.5;entryY=0;entryDx=0;entryDy=0;" parent="1" source="n4DOmOB9AjL-KvQzBsx2-27" target="n4DOmOB9AjL-KvQzBsx2-26" edge="1">
          <mxGeometry relative="1" as="geometry" />
        </mxCell>
        <mxCell id="n4DOmOB9AjL-KvQzBsx2-27" value="Google API Data of Humidity&amp;nbsp;" style="rounded=0;whiteSpace=wrap;html=1;fillColor=#b0e3e6;strokeColor=#0e8088;" parent="1" vertex="1">
          <mxGeometry x="-70" y="290" width="120" height="60" as="geometry" />
        </mxCell>
        <mxCell id="n4DOmOB9AjL-KvQzBsx2-28" value="Maintanence Required in &quot;X&quot; Days" style="rounded=0;whiteSpace=wrap;html=1;fillColor=#b0e3e6;strokeColor=#0e8088;" parent="1" vertex="1">
          <mxGeometry x="-70" y="810" width="120" height="60" as="geometry" />
        </mxCell>
        <mxCell id="n4DOmOB9AjL-KvQzBsx2-32" style="edgeStyle=orthogonalEdgeStyle;rounded=0;orthogonalLoop=1;jettySize=auto;html=1;entryX=0.024;entryY=0.664;entryDx=0;entryDy=0;entryPerimeter=0;" parent="1" source="n4DOmOB9AjL-KvQzBsx2-28" target="n4DOmOB9AjL-KvQzBsx2-21" edge="1">
          <mxGeometry relative="1" as="geometry">
            <Array as="points">
              <mxPoint x="-10" y="1190" />
              <mxPoint x="227" y="1190" />
            </Array>
          </mxGeometry>
        </mxCell>
        <mxCell id="n4DOmOB9AjL-KvQzBsx2-33" value="" style="rounded=0;whiteSpace=wrap;html=1;gradientColor=none;fillColor=none;" parent="1" vertex="1">
          <mxGeometry x="-85" y="270" width="160" height="640" as="geometry" />
        </mxCell>
        <mxCell id="n4DOmOB9AjL-KvQzBsx2-34" value="Fault Prediction Model&amp;nbsp;" style="text;html=1;align=center;verticalAlign=middle;whiteSpace=wrap;rounded=0;" parent="1" vertex="1">
          <mxGeometry x="-105" y="230" width="200" height="40" as="geometry" />
        </mxCell>
        <mxCell id="n4DOmOB9AjL-KvQzBsx2-38" value="NO" style="text;html=1;align=center;verticalAlign=middle;whiteSpace=wrap;rounded=0;" parent="1" vertex="1">
          <mxGeometry x="300" y="690" width="60" height="30" as="geometry" />
        </mxCell>
        <mxCell id="n4DOmOB9AjL-KvQzBsx2-40" value="YES" style="text;html=1;align=center;verticalAlign=middle;whiteSpace=wrap;rounded=0;" parent="1" vertex="1">
          <mxGeometry x="250" y="780" width="60" height="30" as="geometry" />
        </mxCell>
        <mxCell id="n4DOmOB9AjL-KvQzBsx2-45" style="edgeStyle=orthogonalEdgeStyle;rounded=0;orthogonalLoop=1;jettySize=auto;html=1;" parent="1" source="n4DOmOB9AjL-KvQzBsx2-42" target="n4DOmOB9AjL-KvQzBsx2-43" edge="1">
          <mxGeometry relative="1" as="geometry" />
        </mxCell>
        <mxCell id="n4DOmOB9AjL-KvQzBsx2-42" value="Chart.js" style="rounded=0;whiteSpace=wrap;html=1;fillColor=#b0e3e6;strokeColor=#0e8088;" parent="1" vertex="1">
          <mxGeometry x="-70" y="490" width="120" height="60" as="geometry" />
        </mxCell>
        <mxCell id="n4DOmOB9AjL-KvQzBsx2-46" style="edgeStyle=orthogonalEdgeStyle;rounded=0;orthogonalLoop=1;jettySize=auto;html=1;" parent="1" source="n4DOmOB9AjL-KvQzBsx2-43" target="n4DOmOB9AjL-KvQzBsx2-25" edge="1">
          <mxGeometry relative="1" as="geometry" />
        </mxCell>
        <mxCell id="n4DOmOB9AjL-KvQzBsx2-43" value="DOM Tree" style="rounded=0;whiteSpace=wrap;html=1;fillColor=#b0e3e6;strokeColor=#0e8088;" parent="1" vertex="1">
          <mxGeometry x="-70" y="590" width="120" height="60" as="geometry" />
        </mxCell>
        <mxCell id="n4DOmOB9AjL-KvQzBsx2-52" style="edgeStyle=orthogonalEdgeStyle;rounded=0;orthogonalLoop=1;jettySize=auto;html=1;entryX=0.5;entryY=0;entryDx=0;entryDy=0;" parent="1" source="n4DOmOB9AjL-KvQzBsx2-49" target="n4DOmOB9AjL-KvQzBsx2-14" edge="1">
          <mxGeometry relative="1" as="geometry" />
        </mxCell>
        <mxCell id="n4DOmOB9AjL-KvQzBsx2-49" value="Provide back-up&amp;nbsp; protection&amp;nbsp;" style="rounded=0;whiteSpace=wrap;html=1;fillColor=#e1d5e7;strokeColor=#9673a6;" parent="1" vertex="1">
          <mxGeometry x="200" y="810" width="120" height="60" as="geometry" />
        </mxCell>
        <mxCell id="n4DOmOB9AjL-KvQzBsx2-63" style="edgeStyle=orthogonalEdgeStyle;rounded=0;orthogonalLoop=1;jettySize=auto;html=1;" parent="1" source="n4DOmOB9AjL-KvQzBsx2-54" edge="1">
          <mxGeometry relative="1" as="geometry">
            <mxPoint x="260" y="1140" as="targetPoint" />
            <Array as="points">
              <mxPoint x="155" y="1110" />
              <mxPoint x="260" y="1110" />
            </Array>
          </mxGeometry>
        </mxCell>
        <mxCell id="n4DOmOB9AjL-KvQzBsx2-54" value="Email" style="rounded=1;whiteSpace=wrap;html=1;fillColor=#bac8d3;strokeColor=#23445d;" parent="1" vertex="1">
          <mxGeometry x="120" y="1035" width="70" height="45" as="geometry" />
        </mxCell>
        <mxCell id="n4DOmOB9AjL-KvQzBsx2-64" style="edgeStyle=orthogonalEdgeStyle;rounded=0;orthogonalLoop=1;jettySize=auto;html=1;entryX=0.5;entryY=0;entryDx=0;entryDy=0;" parent="1" source="n4DOmOB9AjL-KvQzBsx2-55" target="n4DOmOB9AjL-KvQzBsx2-21" edge="1">
          <mxGeometry relative="1" as="geometry">
            <Array as="points">
              <mxPoint x="370" y="1110" />
              <mxPoint x="260" y="1110" />
            </Array>
          </mxGeometry>
        </mxCell>
        <mxCell id="n4DOmOB9AjL-KvQzBsx2-55" value="SMS" style="rounded=1;whiteSpace=wrap;html=1;fillColor=#bac8d3;strokeColor=#23445d;" parent="1" vertex="1">
          <mxGeometry x="340" y="1035" width="60" height="45" as="geometry" />
        </mxCell>
        <mxCell id="n4DOmOB9AjL-KvQzBsx2-62" style="edgeStyle=orthogonalEdgeStyle;rounded=0;orthogonalLoop=1;jettySize=auto;html=1;entryX=0.5;entryY=0;entryDx=0;entryDy=0;" parent="1" source="n4DOmOB9AjL-KvQzBsx2-56" target="n4DOmOB9AjL-KvQzBsx2-21" edge="1">
          <mxGeometry relative="1" as="geometry" />
        </mxCell>
        <mxCell id="n4DOmOB9AjL-KvQzBsx2-56" value="POP UP" style="rounded=1;whiteSpace=wrap;html=1;fillColor=#bac8d3;strokeColor=#23445d;" parent="1" vertex="1">
          <mxGeometry x="225" y="1035" width="70" height="45" as="geometry" />
        </mxCell>
      </root>
    </mxGraphModel>
  </diagram>
</mxfile>
